# MagicaVoxel @ Ephtracy

# material
mtllib ClosedMicro.mtl
usemtl palette

# normals
vn -1 0 0
vn 1 0 0
vn 0 0 1
vn 0 0 -1
vn 0 -1 0
vn 0 1 0

# texcoords
vt 0.0644531 0.5
vt 0.560547 0.5
vt 0.919922 0.5
vt 0.974609 0.5
vt 0.978516 0.5
vt 0.982422 0.5
vt 0.994141 0.5

# verts
v -29 0 20
v -29 0 -0
v -29 19 20
v -29 19 -0
v -28 1 -0
v -28 1 -1
v -28 2 -0
v -28 2 -1
v -28 3 -0
v -28 3 -1
v -28 4 -0
v -28 4 -1
v -28 8 -0
v -28 8 -1
v -28 9 -0
v -28 9 -1
v -28 10 -0
v -28 10 -1
v -28 11 -0
v -28 11 -1
v -28 12 -0
v -28 12 -1
v -28 13 -0
v -28 13 -1
v -26 6 -0
v -26 6 -1
v -26 7 -0
v -26 7 -1
v -26 8 -0
v -26 8 -1
v -26 9 -0
v -26 9 -1
v -26 10 -0
v -26 10 -1
v -26 11 -0
v -26 11 -1
v -26 12 -0
v -26 12 -1
v -26 13 -0
v -26 13 -1
v -25 3 -0
v -25 3 -1
v -25 4 -0
v -25 4 -1
v -24 8 -0
v -24 8 -1
v -24 9 -0
v -24 9 -1
v -24 10 -0
v -24 10 -1
v -24 11 -0
v -24 11 -1
v -24 12 -0
v -24 12 -1
v -24 13 -0
v -24 13 -1
v -23 14 1
v -23 14 -0
v -23 16 1
v -23 16 -0
v -22 3 -0
v -22 3 -2
v -22 4 -0
v -22 4 -1
v -22 15 -0
v -22 15 -1
v -22 16 -0
v -22 16 -2
v 2 2 1
v 2 2 -0
v 2 17 1
v 2 17 -0
v -28 14 1
v -28 14 -0
v -28 16 1
v -28 16 -0
v -27 8 -0
v -27 8 -1
v -27 9 -0
v -27 9 -1
v -27 10 -0
v -27 10 -1
v -27 11 -0
v -27 11 -1
v -27 12 -0
v -27 12 -1
v -27 13 -0
v -27 13 -1
v -26 3 -0
v -26 3 -1
v -26 4 -0
v -26 4 -1
v -25 6 -0
v -25 6 -1
v -25 7 -0
v -25 7 -1
v -25 8 -0
v -25 8 -1
v -25 9 -0
v -25 9 -1
v -25 10 -0
v -25 10 -1
v -25 11 -0
v -25 11 -1
v -25 12 -0
v -25 12 -1
v -25 13 -0
v -25 13 -1
v -23 1 -0
v -23 1 -1
v -23 2 -0
v -23 2 -1
v -23 3 -0
v -23 3 -1
v -23 4 -0
v -23 4 -1
v -23 8 -0
v -23 8 -1
v -23 9 -0
v -23 9 -1
v -23 10 -0
v -23 10 -1
v -23 11 -0
v -23 11 -1
v -23 12 -0
v -23 12 -1
v -23 13 -0
v -23 13 -1
v -20 2 1
v -20 2 -0
v -20 3 -0
v -20 3 -2
v -20 4 -0
v -20 4 -1
v -20 15 -0
v -20 15 -1
v -20 16 -0
v -20 16 -2
v -20 17 1
v -20 17 -0
v 4 0 20
v 4 0 -0
v 4 19 20
v 4 19 -0
v -29 0 20
v -29 19 20
v 4 0 20
v 4 19 20
v -22 4 -1
v -22 15 -1
v -20 4 -1
v -20 15 -1
v -28 14 1
v -28 16 1
v -23 14 1
v -23 16 1
v -20 2 1
v -20 17 1
v 2 2 1
v 2 17 1
v -29 0 -0
v -29 19 -0
v -28 1 -0
v -28 2 -0
v -28 3 -0
v -28 4 -0
v -28 8 -0
v -28 9 -0
v -28 10 -0
v -28 11 -0
v -28 12 -0
v -28 13 -0
v -28 14 -0
v -28 16 -0
v -27 8 -0
v -27 9 -0
v -27 10 -0
v -27 11 -0
v -27 12 -0
v -27 13 -0
v -26 3 -0
v -26 4 -0
v -26 6 -0
v -26 7 -0
v -26 8 -0
v -26 9 -0
v -26 10 -0
v -26 11 -0
v -26 12 -0
v -26 13 -0
v -25 3 -0
v -25 4 -0
v -25 6 -0
v -25 7 -0
v -25 8 -0
v -25 9 -0
v -25 10 -0
v -25 11 -0
v -25 12 -0
v -25 13 -0
v -24 8 -0
v -24 9 -0
v -24 10 -0
v -24 11 -0
v -24 12 -0
v -24 13 -0
v -23 1 -0
v -23 2 -0
v -23 3 -0
v -23 4 -0
v -23 8 -0
v -23 9 -0
v -23 10 -0
v -23 11 -0
v -23 12 -0
v -23 13 -0
v -23 14 -0
v -23 16 -0
v -22 3 -0
v -22 4 -0
v -22 15 -0
v -22 16 -0
v -20 2 -0
v -20 3 -0
v -20 4 -0
v -20 15 -0
v -20 16 -0
v -20 17 -0
v 2 2 -0
v 2 17 -0
v 4 0 -0
v 4 19 -0
v -28 1 -1
v -28 2 -1
v -28 3 -1
v -28 4 -1
v -28 8 -1
v -28 9 -1
v -28 10 -1
v -28 11 -1
v -28 12 -1
v -28 13 -1
v -27 8 -1
v -27 9 -1
v -27 10 -1
v -27 11 -1
v -27 12 -1
v -27 13 -1
v -26 3 -1
v -26 4 -1
v -26 6 -1
v -26 7 -1
v -26 8 -1
v -26 9 -1
v -26 10 -1
v -26 11 -1
v -26 12 -1
v -26 13 -1
v -25 3 -1
v -25 4 -1
v -25 6 -1
v -25 7 -1
v -25 8 -1
v -25 9 -1
v -25 10 -1
v -25 11 -1
v -25 12 -1
v -25 13 -1
v -24 8 -1
v -24 9 -1
v -24 10 -1
v -24 11 -1
v -24 12 -1
v -24 13 -1
v -23 1 -1
v -23 2 -1
v -23 3 -1
v -23 4 -1
v -23 8 -1
v -23 9 -1
v -23 10 -1
v -23 11 -1
v -23 12 -1
v -23 13 -1
v -22 3 -2
v -22 16 -2
v -20 3 -2
v -20 16 -2
v -29 0 20
v 4 0 20
v -29 0 -0
v 4 0 -0
v -28 1 -0
v -23 1 -0
v -28 1 -1
v -23 1 -1
v -28 3 -0
v -26 3 -0
v -25 3 -0
v -23 3 -0
v -22 3 -0
v -20 3 -0
v -28 3 -1
v -26 3 -1
v -25 3 -1
v -23 3 -1
v -22 3 -2
v -20 3 -2
v -26 6 -0
v -25 6 -0
v -26 6 -1
v -25 6 -1
v -28 8 -0
v -27 8 -0
v -26 8 -0
v -25 8 -0
v -24 8 -0
v -23 8 -0
v -28 8 -1
v -27 8 -1
v -26 8 -1
v -25 8 -1
v -24 8 -1
v -23 8 -1
v -28 10 -0
v -27 10 -0
v -26 10 -0
v -25 10 -0
v -24 10 -0
v -23 10 -0
v -28 10 -1
v -27 10 -1
v -26 10 -1
v -25 10 -1
v -24 10 -1
v -23 10 -1
v -28 12 -0
v -27 12 -0
v -26 12 -0
v -25 12 -0
v -24 12 -0
v -23 12 -0
v -28 12 -1
v -27 12 -1
v -26 12 -1
v -25 12 -1
v -24 12 -1
v -23 12 -1
v -22 15 -0
v -20 15 -0
v -22 15 -1
v -20 15 -1
v -28 16 1
v -23 16 1
v -28 16 -0
v -23 16 -0
v -20 17 1
v 2 17 1
v -20 17 -0
v 2 17 -0
v -20 2 1
v 2 2 1
v -28 2 -0
v -23 2 -0
v -20 2 -0
v 2 2 -0
v -28 2 -1
v -23 2 -1
v -28 4 -0
v -26 4 -0
v -25 4 -0
v -23 4 -0
v -22 4 -0
v -20 4 -0
v -28 4 -1
v -26 4 -1
v -25 4 -1
v -23 4 -1
v -22 4 -1
v -20 4 -1
v -26 7 -0
v -25 7 -0
v -26 7 -1
v -25 7 -1
v -28 9 -0
v -27 9 -0
v -26 9 -0
v -25 9 -0
v -24 9 -0
v -23 9 -0
v -28 9 -1
v -27 9 -1
v -26 9 -1
v -25 9 -1
v -24 9 -1
v -23 9 -1
v -28 11 -0
v -27 11 -0
v -26 11 -0
v -25 11 -0
v -24 11 -0
v -23 11 -0
v -28 11 -1
v -27 11 -1
v -26 11 -1
v -25 11 -1
v -24 11 -1
v -23 11 -1
v -28 13 -0
v -27 13 -0
v -26 13 -0
v -25 13 -0
v -24 13 -0
v -23 13 -0
v -28 13 -1
v -27 13 -1
v -26 13 -1
v -25 13 -1
v -24 13 -1
v -23 13 -1
v -28 14 1
v -23 14 1
v -28 14 -0
v -23 14 -0
v -22 16 -0
v -20 16 -0
v -22 16 -2
v -20 16 -2
v -29 19 20
v 4 19 20
v -29 19 -0
v 4 19 -0

# faces
f 3/3/1 2/3/1 1/3/1
f 4/3/1 2/3/1 3/3/1
f 7/5/1 6/5/1 5/5/1
f 8/5/1 6/5/1 7/5/1
f 11/2/1 10/2/1 9/2/1
f 12/2/1 10/2/1 11/2/1
f 15/2/1 14/2/1 13/2/1
f 16/2/1 14/2/1 15/2/1
f 19/2/1 18/2/1 17/2/1
f 20/2/1 18/2/1 19/2/1
f 23/2/1 22/2/1 21/2/1
f 24/2/1 22/2/1 23/2/1
f 27/2/1 26/2/1 25/2/1
f 28/2/1 26/2/1 27/2/1
f 31/2/1 30/2/1 29/2/1
f 32/2/1 30/2/1 31/2/1
f 35/2/1 34/2/1 33/2/1
f 36/2/1 34/2/1 35/2/1
f 39/2/1 38/2/1 37/2/1
f 40/2/1 38/2/1 39/2/1
f 43/1/1 42/1/1 41/1/1
f 44/1/1 42/1/1 43/1/1
f 47/2/1 46/2/1 45/2/1
f 48/2/1 46/2/1 47/2/1
f 51/2/1 50/2/1 49/2/1
f 52/2/1 50/2/1 51/2/1
f 55/2/1 54/2/1 53/2/1
f 56/2/1 54/2/1 55/2/1
f 59/3/1 58/3/1 57/3/1
f 60/3/1 58/3/1 59/3/1
f 63/4/1 62/4/1 61/4/1
f 64/4/1 62/4/1 63/4/1
f 66/4/1 62/4/1 64/4/1
f 67/4/1 66/4/1 65/4/1
f 68/4/1 62/4/1 66/4/1
f 68/4/1 66/4/1 67/4/1
f 71/3/1 70/3/1 69/3/1
f 72/3/1 70/3/1 71/3/1
f 73/3/2 74/3/2 75/3/2
f 75/3/2 74/3/2 76/3/2
f 77/2/2 78/2/2 79/2/2
f 79/2/2 78/2/2 80/2/2
f 81/2/2 82/2/2 83/2/2
f 83/2/2 82/2/2 84/2/2
f 85/2/2 86/2/2 87/2/2
f 87/2/2 86/2/2 88/2/2
f 89/2/2 90/2/2 91/2/2
f 91/2/2 90/2/2 92/2/2
f 93/2/2 94/2/2 95/2/2
f 95/2/2 94/2/2 96/2/2
f 97/2/2 98/2/2 99/2/2
f 99/2/2 98/2/2 100/2/2
f 101/2/2 102/2/2 103/2/2
f 103/2/2 102/2/2 104/2/2
f 105/2/2 106/2/2 107/2/2
f 107/2/2 106/2/2 108/2/2
f 109/5/2 110/5/2 111/5/2
f 111/5/2 110/5/2 112/5/2
f 113/1/2 114/1/2 115/1/2
f 115/1/2 114/1/2 116/1/2
f 117/2/2 118/2/2 119/2/2
f 119/2/2 118/2/2 120/2/2
f 121/2/2 122/2/2 123/2/2
f 123/2/2 122/2/2 124/2/2
f 125/2/2 126/2/2 127/2/2
f 127/2/2 126/2/2 128/2/2
f 129/3/2 130/3/2 131/3/2
f 129/3/2 131/3/2 133/3/2
f 131/4/2 132/4/2 133/4/2
f 133/4/2 132/4/2 134/4/2
f 129/3/2 133/3/2 135/3/2
f 134/4/2 132/4/2 136/4/2
f 129/3/2 135/3/2 137/3/2
f 135/4/2 136/4/2 137/4/2
f 136/4/2 132/4/2 138/4/2
f 137/4/2 136/4/2 138/4/2
f 129/3/2 137/3/2 139/3/2
f 139/3/2 137/3/2 140/3/2
f 141/3/2 142/3/2 143/3/2
f 143/3/2 142/3/2 144/3/2
f 147/3/3 146/3/3 145/3/3
f 148/3/3 146/3/3 147/3/3
f 151/4/3 150/4/3 149/4/3
f 152/4/3 150/4/3 151/4/3
f 153/7/4 154/7/4 155/7/4
f 155/7/4 154/7/4 156/7/4
f 157/6/4 158/6/4 159/6/4
f 159/6/4 158/6/4 160/6/4
f 161/3/4 162/3/4 163/3/4
f 163/3/4 162/3/4 164/3/4
f 164/3/4 162/3/4 165/3/4
f 165/3/4 162/3/4 166/3/4
f 166/3/4 162/3/4 167/3/4
f 167/3/4 162/3/4 168/3/4
f 168/3/4 162/3/4 169/3/4
f 169/3/4 162/3/4 170/3/4
f 170/3/4 162/3/4 171/3/4
f 171/3/4 162/3/4 172/3/4
f 172/3/4 162/3/4 173/3/4
f 173/3/4 162/3/4 174/3/4
f 166/3/4 167/3/4 175/3/4
f 168/3/4 169/3/4 176/3/4
f 176/3/4 169/3/4 177/3/4
f 170/3/4 171/3/4 178/3/4
f 178/3/4 171/3/4 179/3/4
f 172/3/4 173/3/4 180/3/4
f 164/3/4 165/3/4 181/3/4
f 179/3/4 180/3/4 182/3/4
f 178/3/4 179/3/4 182/3/4
f 176/3/4 177/3/4 182/3/4
f 166/3/4 175/3/4 182/3/4
f 177/3/4 178/3/4 182/3/4
f 175/3/4 176/3/4 182/3/4
f 182/3/4 180/3/4 183/3/4
f 183/3/4 180/3/4 184/3/4
f 184/3/4 180/3/4 185/3/4
f 185/3/4 180/3/4 186/3/4
f 186/3/4 180/3/4 187/3/4
f 187/3/4 180/3/4 188/3/4
f 188/3/4 180/3/4 189/3/4
f 180/3/4 173/3/4 190/3/4
f 189/3/4 180/3/4 190/3/4
f 164/3/4 181/3/4 191/3/4
f 181/3/4 182/3/4 191/3/4
f 182/3/4 183/3/4 191/3/4
f 191/3/4 183/3/4 192/3/4
f 192/3/4 183/3/4 193/3/4
f 184/3/4 185/3/4 194/3/4
f 194/3/4 185/3/4 195/3/4
f 186/3/4 187/3/4 196/3/4
f 196/3/4 187/3/4 197/3/4
f 188/3/4 189/3/4 198/3/4
f 198/3/4 189/3/4 199/3/4
f 190/3/4 173/3/4 200/3/4
f 198/3/4 199/3/4 201/3/4
f 199/3/4 200/3/4 201/3/4
f 196/3/4 197/3/4 201/3/4
f 194/3/4 195/3/4 201/3/4
f 197/3/4 198/3/4 201/3/4
f 192/3/4 193/3/4 201/3/4
f 195/3/4 196/3/4 201/3/4
f 193/3/4 194/3/4 201/3/4
f 201/3/4 200/3/4 202/3/4
f 202/3/4 200/3/4 203/3/4
f 203/3/4 200/3/4 204/3/4
f 204/3/4 200/3/4 205/3/4
f 200/3/4 173/3/4 206/3/4
f 205/3/4 200/3/4 206/3/4
f 161/3/4 163/3/4 207/3/4
f 164/3/4 191/3/4 208/3/4
f 208/3/4 191/3/4 209/3/4
f 192/3/4 201/3/4 210/3/4
f 210/3/4 201/3/4 211/3/4
f 202/3/4 203/3/4 212/3/4
f 212/3/4 203/3/4 213/3/4
f 204/3/4 205/3/4 214/3/4
f 214/3/4 205/3/4 215/3/4
f 206/3/4 173/3/4 216/3/4
f 216/3/4 173/3/4 217/3/4
f 174/3/4 162/3/4 218/3/4
f 214/3/4 215/3/4 219/3/4
f 217/3/4 218/3/4 219/3/4
f 216/3/4 217/3/4 219/3/4
f 212/3/4 213/3/4 219/3/4
f 215/3/4 216/3/4 219/3/4
f 208/3/4 209/3/4 219/3/4
f 213/3/4 214/3/4 219/3/4
f 210/3/4 211/3/4 219/3/4
f 211/3/4 212/3/4 219/3/4
f 207/3/4 208/3/4 219/3/4
f 209/3/4 210/3/4 219/3/4
f 219/3/4 218/3/4 220/3/4
f 220/3/4 218/3/4 221/3/4
f 218/3/4 162/3/4 222/3/4
f 221/3/4 218/3/4 222/3/4
f 207/3/4 219/3/4 223/3/4
f 223/3/4 219/3/4 224/3/4
f 220/3/4 221/3/4 225/3/4
f 225/3/4 221/3/4 226/3/4
f 222/3/4 162/3/4 227/3/4
f 227/3/4 162/3/4 228/3/4
f 207/3/4 223/3/4 229/3/4
f 228/3/4 162/3/4 230/3/4
f 207/3/4 229/3/4 231/3/4
f 229/3/4 230/3/4 231/3/4
f 161/3/4 207/3/4 231/3/4
f 230/3/4 162/3/4 232/3/4
f 231/3/4 230/3/4 232/3/4
f 237/2/4 238/2/4 243/2/4
f 243/2/4 238/2/4 244/2/4
f 239/2/4 240/2/4 245/2/4
f 245/2/4 240/2/4 246/2/4
f 241/2/4 242/2/4 247/2/4
f 247/2/4 242/2/4 248/2/4
f 235/2/4 236/2/4 249/2/4
f 249/2/4 236/2/4 250/2/4
f 251/2/4 252/2/4 261/2/4
f 261/2/4 252/2/4 262/2/4
f 253/2/4 254/2/4 263/2/4
f 263/2/4 254/2/4 264/2/4
f 255/2/4 256/2/4 265/2/4
f 265/2/4 256/2/4 266/2/4
f 257/2/4 258/2/4 267/2/4
f 267/2/4 258/2/4 268/2/4
f 233/5/4 234/5/4 275/5/4
f 275/5/4 234/5/4 276/5/4
f 259/1/4 260/1/4 277/1/4
f 277/1/4 260/1/4 278/1/4
f 269/2/4 270/2/4 279/2/4
f 279/2/4 270/2/4 280/2/4
f 271/2/4 272/2/4 281/2/4
f 281/2/4 272/2/4 282/2/4
f 273/2/4 274/2/4 283/2/4
f 283/2/4 274/2/4 284/2/4
f 285/4/4 286/4/4 287/4/4
f 287/4/4 286/4/4 288/4/4
f 291/3/5 290/3/5 289/3/5
f 292/3/5 290/3/5 291/3/5
f 295/5/5 294/5/5 293/5/5
f 296/5/5 294/5/5 295/5/5
f 303/2/5 298/2/5 297/2/5
f 304/2/5 298/2/5 303/2/5
f 305/1/5 300/1/5 299/1/5
f 306/1/5 300/1/5 305/1/5
f 307/4/5 302/4/5 301/4/5
f 308/4/5 302/4/5 307/4/5
f 311/2/5 310/2/5 309/2/5
f 312/2/5 310/2/5 311/2/5
f 319/2/5 314/2/5 313/2/5
f 320/2/5 314/2/5 319/2/5
f 321/2/5 316/2/5 315/2/5
f 322/2/5 316/2/5 321/2/5
f 323/2/5 318/2/5 317/2/5
f 324/2/5 318/2/5 323/2/5
f 331/2/5 326/2/5 325/2/5
f 332/2/5 326/2/5 331/2/5
f 333/2/5 328/2/5 327/2/5
f 334/2/5 328/2/5 333/2/5
f 335/2/5 330/2/5 329/2/5
f 336/2/5 330/2/5 335/2/5
f 343/2/5 338/2/5 337/2/5
f 344/2/5 338/2/5 343/2/5
f 345/2/5 340/2/5 339/2/5
f 346/2/5 340/2/5 345/2/5
f 347/2/5 342/2/5 341/2/5
f 348/2/5 342/2/5 347/2/5
f 351/4/5 350/4/5 349/4/5
f 352/4/5 350/4/5 351/4/5
f 355/3/5 354/3/5 353/3/5
f 356/3/5 354/3/5 355/3/5
f 359/3/5 358/3/5 357/3/5
f 360/3/5 358/3/5 359/3/5
f 361/3/6 362/3/6 365/3/6
f 365/3/6 362/3/6 366/3/6
f 363/5/6 364/5/6 367/5/6
f 367/5/6 364/5/6 368/5/6
f 369/2/6 370/2/6 375/2/6
f 375/2/6 370/2/6 376/2/6
f 371/1/6 372/1/6 377/1/6
f 377/1/6 372/1/6 378/1/6
f 373/4/6 374/4/6 379/4/6
f 379/4/6 374/4/6 380/4/6
f 381/2/6 382/2/6 383/2/6
f 383/2/6 382/2/6 384/2/6
f 385/2/6 386/2/6 391/2/6
f 391/2/6 386/2/6 392/2/6
f 387/2/6 388/2/6 393/2/6
f 393/2/6 388/2/6 394/2/6
f 389/2/6 390/2/6 395/2/6
f 395/2/6 390/2/6 396/2/6
f 397/2/6 398/2/6 403/2/6
f 403/2/6 398/2/6 404/2/6
f 399/2/6 400/2/6 405/2/6
f 405/2/6 400/2/6 406/2/6
f 401/2/6 402/2/6 407/2/6
f 407/2/6 402/2/6 408/2/6
f 409/2/6 410/2/6 415/2/6
f 415/2/6 410/2/6 416/2/6
f 411/2/6 412/2/6 417/2/6
f 417/2/6 412/2/6 418/2/6
f 413/2/6 414/2/6 419/2/6
f 419/2/6 414/2/6 420/2/6
f 421/3/6 422/3/6 423/3/6
f 423/3/6 422/3/6 424/3/6
f 425/4/6 426/4/6 427/4/6
f 427/4/6 426/4/6 428/4/6
f 429/3/6 430/3/6 431/3/6
f 431/3/6 430/3/6 432/3/6
