# MagicaVoxel @ Ephtracy

# material
mtllib OpenMicro.mtl
usemtl palette

# normals
vn -1 0 0
vn 1 0 0
vn 0 0 1
vn 0 0 -1
vn 0 -1 0
vn 0 1 0

# texcoords
vt 0.0644531 0.5
vt 0.560547 0.5
vt 0.685547 0.5
vt 0.919922 0.5
vt 0.978516 0.5
vt 0.982422 0.5
vt 0.986328 0.5
vt 0.994141 0.5

# verts
v -23 0 20
v -23 0 -0
v -23 19 20
v -23 19 -0
v -22 1 -0
v -22 1 -1
v -22 2 -0
v -22 2 -1
v -22 3 -0
v -22 3 -1
v -22 4 -0
v -22 4 -1
v -22 8 -0
v -22 8 -1
v -22 9 -0
v -22 9 -1
v -22 10 -0
v -22 10 -1
v -22 11 -0
v -22 11 -1
v -22 12 -0
v -22 12 -1
v -22 13 -0
v -22 13 -1
v -20 6 -0
v -20 6 -1
v -20 7 -0
v -20 7 -1
v -20 8 -0
v -20 8 -1
v -20 9 -0
v -20 9 -1
v -20 10 -0
v -20 10 -1
v -20 11 -0
v -20 11 -1
v -20 12 -0
v -20 12 -1
v -20 13 -0
v -20 13 -1
v -19 3 -0
v -19 3 -1
v -19 4 -0
v -19 4 -1
v -18 8 -0
v -18 8 -1
v -18 9 -0
v -18 9 -1
v -18 10 -0
v -18 10 -1
v -18 11 -0
v -18 11 -1
v -18 12 -0
v -18 12 -1
v -18 13 -0
v -18 13 -1
v -17 14 1
v -17 14 -0
v -17 16 1
v -17 16 -0
v -10 3 9
v -10 3 5
v -10 4 9
v -10 4 5
v -9 3 10
v -9 3 9
v -9 3 5
v -9 3 4
v -9 4 10
v -9 4 9
v -9 4 5
v -9 4 4
v -7 2 10
v -7 2 6
v -7 3 10
v -7 3 6
v 1 2 15
v 1 2 1
v 1 17 15
v 1 17 1
v 5 2 1
v 5 2 -0
v 5 17 1
v 5 17 -0
v -22 14 1
v -22 14 -0
v -22 16 1
v -22 16 -0
v -21 8 -0
v -21 8 -1
v -21 9 -0
v -21 9 -1
v -21 10 -0
v -21 10 -1
v -21 11 -0
v -21 11 -1
v -21 12 -0
v -21 12 -1
v -21 13 -0
v -21 13 -1
v -20 3 -0
v -20 3 -1
v -20 4 -0
v -20 4 -1
v -19 6 -0
v -19 6 -1
v -19 7 -0
v -19 7 -1
v -19 8 -0
v -19 8 -1
v -19 9 -0
v -19 9 -1
v -19 10 -0
v -19 10 -1
v -19 11 -0
v -19 11 -1
v -19 12 -0
v -19 12 -1
v -19 13 -0
v -19 13 -1
v -17 1 -0
v -17 1 -1
v -17 2 -0
v -17 2 -1
v -17 3 -0
v -17 3 -1
v -17 4 -0
v -17 4 -1
v -17 8 -0
v -17 8 -1
v -17 9 -0
v -17 9 -1
v -17 10 -0
v -17 10 -1
v -17 11 -0
v -17 11 -1
v -17 12 -0
v -17 12 -1
v -17 13 -0
v -17 13 -1
v -14 2 15
v -14 2 1
v -14 2 -0
v -14 17 15
v -14 17 1
v -14 17 -0
v -6 2 10
v -6 2 6
v -6 3 10
v -6 3 6
v -4 3 10
v -4 3 9
v -4 3 5
v -4 3 4
v -4 4 10
v -4 4 9
v -4 4 5
v -4 4 4
v -3 3 9
v -3 3 5
v -3 4 9
v -3 4 5
v 5 0 20
v 5 0 1
v 5 2 1
v 5 17 1
v 5 19 20
v 5 19 1
v 24 0 1
v 24 0 -0
v 24 19 1
v 24 19 -0
v -23 0 20
v -23 19 20
v 5 0 20
v 5 19 20
v -9 3 10
v -9 4 10
v -7 2 10
v -7 3 10
v -6 2 10
v -6 3 10
v -4 3 10
v -4 4 10
v -10 3 9
v -10 4 9
v -9 3 9
v -9 4 9
v -4 3 9
v -4 4 9
v -3 3 9
v -3 4 9
v 5 0 1
v 5 2 1
v 5 17 1
v 5 19 1
v 22 2 1
v 22 17 1
v 24 0 1
v 24 19 1
v -14 2 15
v -14 17 15
v 1 2 15
v 1 17 15
v -7 2 6
v -7 3 6
v -6 2 6
v -6 3 6
v -10 3 5
v -10 4 5
v -9 3 5
v -9 4 5
v -4 3 5
v -4 4 5
v -3 3 5
v -3 4 5
v -9 3 4
v -9 4 4
v -4 3 4
v -4 4 4
v -22 14 1
v -22 16 1
v -17 14 1
v -17 16 1
v 1 2 1
v 1 17 1
v 5 2 1
v 5 17 1
v -23 0 -0
v -23 19 -0
v -22 1 -0
v -22 2 -0
v -22 3 -0
v -22 4 -0
v -22 8 -0
v -22 9 -0
v -22 10 -0
v -22 11 -0
v -22 12 -0
v -22 13 -0
v -22 14 -0
v -22 16 -0
v -21 8 -0
v -21 9 -0
v -21 10 -0
v -21 11 -0
v -21 12 -0
v -21 13 -0
v -20 3 -0
v -20 4 -0
v -20 6 -0
v -20 7 -0
v -20 8 -0
v -20 9 -0
v -20 10 -0
v -20 11 -0
v -20 12 -0
v -20 13 -0
v -19 3 -0
v -19 4 -0
v -19 6 -0
v -19 7 -0
v -19 8 -0
v -19 9 -0
v -19 10 -0
v -19 11 -0
v -19 12 -0
v -19 13 -0
v -18 8 -0
v -18 9 -0
v -18 10 -0
v -18 11 -0
v -18 12 -0
v -18 13 -0
v -17 1 -0
v -17 2 -0
v -17 3 -0
v -17 4 -0
v -17 8 -0
v -17 9 -0
v -17 10 -0
v -17 11 -0
v -17 12 -0
v -17 13 -0
v -17 14 -0
v -17 16 -0
v -14 2 -0
v -14 17 -0
v 5 2 -0
v 5 17 -0
v 22 2 -0
v 22 17 -0
v 24 0 -0
v 24 19 -0
v -22 1 -1
v -22 2 -1
v -22 3 -1
v -22 4 -1
v -22 8 -1
v -22 9 -1
v -22 10 -1
v -22 11 -1
v -22 12 -1
v -22 13 -1
v -21 8 -1
v -21 9 -1
v -21 10 -1
v -21 11 -1
v -21 12 -1
v -21 13 -1
v -20 3 -1
v -20 4 -1
v -20 6 -1
v -20 7 -1
v -20 8 -1
v -20 9 -1
v -20 10 -1
v -20 11 -1
v -20 12 -1
v -20 13 -1
v -19 3 -1
v -19 4 -1
v -19 6 -1
v -19 7 -1
v -19 8 -1
v -19 9 -1
v -19 10 -1
v -19 11 -1
v -19 12 -1
v -19 13 -1
v -18 8 -1
v -18 9 -1
v -18 10 -1
v -18 11 -1
v -18 12 -1
v -18 13 -1
v -17 1 -1
v -17 2 -1
v -17 3 -1
v -17 4 -1
v -17 8 -1
v -17 9 -1
v -17 10 -1
v -17 11 -1
v -17 12 -1
v -17 13 -1
v -23 0 20
v 5 0 20
v 5 0 1
v 24 0 1
v -23 0 -0
v 24 0 -0
v -22 1 -0
v -17 1 -0
v -22 1 -1
v -17 1 -1
v -9 3 10
v -7 3 10
v -6 3 10
v -4 3 10
v -10 3 9
v -9 3 9
v -4 3 9
v -3 3 9
v -7 3 6
v -6 3 6
v -10 3 5
v -9 3 5
v -4 3 5
v -3 3 5
v -9 3 4
v -4 3 4
v -22 3 -0
v -20 3 -0
v -19 3 -0
v -17 3 -0
v -22 3 -1
v -20 3 -1
v -19 3 -1
v -17 3 -1
v -20 6 -0
v -19 6 -0
v -20 6 -1
v -19 6 -1
v -22 8 -0
v -21 8 -0
v -20 8 -0
v -19 8 -0
v -18 8 -0
v -17 8 -0
v -22 8 -1
v -21 8 -1
v -20 8 -1
v -19 8 -1
v -18 8 -1
v -17 8 -1
v -22 10 -0
v -21 10 -0
v -20 10 -0
v -19 10 -0
v -18 10 -0
v -17 10 -0
v -22 10 -1
v -21 10 -1
v -20 10 -1
v -19 10 -1
v -18 10 -1
v -17 10 -1
v -22 12 -0
v -21 12 -0
v -20 12 -0
v -19 12 -0
v -18 12 -0
v -17 12 -0
v -22 12 -1
v -21 12 -1
v -20 12 -1
v -19 12 -1
v -18 12 -1
v -17 12 -1
v -22 16 1
v -17 16 1
v -22 16 -0
v -17 16 -0
v -14 17 15
v 1 17 15
v -14 17 1
v 1 17 1
v 5 17 1
v -14 17 -0
v 5 17 -0
v -14 2 15
v 1 2 15
v -7 2 10
v -6 2 10
v -7 2 6
v -6 2 6
v -14 2 1
v 1 2 1
v 5 2 1
v -22 2 -0
v -17 2 -0
v -14 2 -0
v 5 2 -0
v -22 2 -1
v -17 2 -1
v -9 4 10
v -4 4 10
v -10 4 9
v -9 4 9
v -4 4 9
v -3 4 9
v -10 4 5
v -9 4 5
v -4 4 5
v -3 4 5
v -9 4 4
v -4 4 4
v -22 4 -0
v -20 4 -0
v -19 4 -0
v -17 4 -0
v -22 4 -1
v -20 4 -1
v -19 4 -1
v -17 4 -1
v -20 7 -0
v -19 7 -0
v -20 7 -1
v -19 7 -1
v -22 9 -0
v -21 9 -0
v -20 9 -0
v -19 9 -0
v -18 9 -0
v -17 9 -0
v -22 9 -1
v -21 9 -1
v -20 9 -1
v -19 9 -1
v -18 9 -1
v -17 9 -1
v -22 11 -0
v -21 11 -0
v -20 11 -0
v -19 11 -0
v -18 11 -0
v -17 11 -0
v -22 11 -1
v -21 11 -1
v -20 11 -1
v -19 11 -1
v -18 11 -1
v -17 11 -1
v -22 13 -0
v -21 13 -0
v -20 13 -0
v -19 13 -0
v -18 13 -0
v -17 13 -0
v -22 13 -1
v -21 13 -1
v -20 13 -1
v -19 13 -1
v -18 13 -1
v -17 13 -1
v -22 14 1
v -17 14 1
v -22 14 -0
v -17 14 -0
v -23 19 20
v 5 19 20
v 5 19 1
v 24 19 1
v -23 19 -0
v 24 19 -0

# faces
f 3/4/1 2/4/1 1/4/1
f 4/4/1 2/4/1 3/4/1
f 7/5/1 6/5/1 5/5/1
f 8/5/1 6/5/1 7/5/1
f 11/2/1 10/2/1 9/2/1
f 12/2/1 10/2/1 11/2/1
f 15/2/1 14/2/1 13/2/1
f 16/2/1 14/2/1 15/2/1
f 19/2/1 18/2/1 17/2/1
f 20/2/1 18/2/1 19/2/1
f 23/2/1 22/2/1 21/2/1
f 24/2/1 22/2/1 23/2/1
f 27/2/1 26/2/1 25/2/1
f 28/2/1 26/2/1 27/2/1
f 31/2/1 30/2/1 29/2/1
f 32/2/1 30/2/1 31/2/1
f 35/2/1 34/2/1 33/2/1
f 36/2/1 34/2/1 35/2/1
f 39/2/1 38/2/1 37/2/1
f 40/2/1 38/2/1 39/2/1
f 43/1/1 42/1/1 41/1/1
f 44/1/1 42/1/1 43/1/1
f 47/2/1 46/2/1 45/2/1
f 48/2/1 46/2/1 47/2/1
f 51/2/1 50/2/1 49/2/1
f 52/2/1 50/2/1 51/2/1
f 55/2/1 54/2/1 53/2/1
f 56/2/1 54/2/1 55/2/1
f 59/4/1 58/4/1 57/4/1
f 60/4/1 58/4/1 59/4/1
f 63/3/1 62/3/1 61/3/1
f 64/3/1 62/3/1 63/3/1
f 69/3/1 66/3/1 65/3/1
f 70/3/1 66/3/1 69/3/1
f 71/3/1 68/3/1 67/3/1
f 72/3/1 68/3/1 71/3/1
f 75/3/1 74/3/1 73/3/1
f 76/3/1 74/3/1 75/3/1
f 79/4/1 78/4/1 77/4/1
f 80/4/1 78/4/1 79/4/1
f 83/7/1 82/7/1 81/7/1
f 84/7/1 82/7/1 83/7/1
f 85/4/2 86/4/2 87/4/2
f 87/4/2 86/4/2 88/4/2
f 89/2/2 90/2/2 91/2/2
f 91/2/2 90/2/2 92/2/2
f 93/2/2 94/2/2 95/2/2
f 95/2/2 94/2/2 96/2/2
f 97/2/2 98/2/2 99/2/2
f 99/2/2 98/2/2 100/2/2
f 101/2/2 102/2/2 103/2/2
f 103/2/2 102/2/2 104/2/2
f 105/2/2 106/2/2 107/2/2
f 107/2/2 106/2/2 108/2/2
f 109/2/2 110/2/2 111/2/2
f 111/2/2 110/2/2 112/2/2
f 113/2/2 114/2/2 115/2/2
f 115/2/2 114/2/2 116/2/2
f 117/2/2 118/2/2 119/2/2
f 119/2/2 118/2/2 120/2/2
f 121/5/2 122/5/2 123/5/2
f 123/5/2 122/5/2 124/5/2
f 125/1/2 126/1/2 127/1/2
f 127/1/2 126/1/2 128/1/2
f 129/2/2 130/2/2 131/2/2
f 131/2/2 130/2/2 132/2/2
f 133/2/2 134/2/2 135/2/2
f 135/2/2 134/2/2 136/2/2
f 137/2/2 138/2/2 139/2/2
f 139/2/2 138/2/2 140/2/2
f 141/6/2 142/6/2 144/6/2
f 142/4/2 143/4/2 145/4/2
f 144/6/2 142/6/2 145/6/2
f 145/4/2 143/4/2 146/4/2
f 147/3/2 148/3/2 149/3/2
f 149/3/2 148/3/2 150/3/2
f 151/3/2 152/3/2 155/3/2
f 155/3/2 152/3/2 156/3/2
f 153/3/2 154/3/2 157/3/2
f 157/3/2 154/3/2 158/3/2
f 159/3/2 160/3/2 161/3/2
f 161/3/2 160/3/2 162/3/2
f 163/4/2 164/4/2 165/4/2
f 163/4/2 165/4/2 166/4/2
f 163/4/2 166/4/2 167/4/2
f 167/4/2 166/4/2 168/4/2
f 169/4/2 170/4/2 171/4/2
f 171/4/2 170/4/2 172/4/2
f 175/4/3 174/4/3 173/4/3
f 176/4/3 174/4/3 175/4/3
f 180/3/3 178/3/3 177/3/3
f 181/3/3 180/3/3 179/3/3
f 182/3/3 178/3/3 180/3/3
f 182/3/3 180/3/3 181/3/3
f 183/3/3 178/3/3 182/3/3
f 184/3/3 178/3/3 183/3/3
f 187/3/3 186/3/3 185/3/3
f 188/3/3 186/3/3 187/3/3
f 191/3/3 190/3/3 189/3/3
f 192/3/3 190/3/3 191/3/3
f 197/4/3 194/4/3 193/4/3
f 197/7/3 195/7/3 194/7/3
f 198/4/3 196/4/3 195/4/3
f 198/7/3 195/7/3 197/7/3
f 199/4/3 197/4/3 193/4/3
f 199/4/3 198/4/3 197/4/3
f 200/4/3 196/4/3 198/4/3
f 200/4/3 198/4/3 199/4/3
f 201/6/4 202/6/4 203/6/4
f 203/6/4 202/6/4 204/6/4
f 205/3/4 206/3/4 207/3/4
f 207/3/4 206/3/4 208/3/4
f 209/3/4 210/3/4 211/3/4
f 211/3/4 210/3/4 212/3/4
f 213/3/4 214/3/4 215/3/4
f 215/3/4 214/3/4 216/3/4
f 217/3/4 218/3/4 219/3/4
f 219/3/4 218/3/4 220/3/4
f 221/8/4 222/8/4 223/8/4
f 223/8/4 222/8/4 224/8/4
f 225/4/4 226/4/4 227/4/4
f 227/4/4 226/4/4 228/4/4
f 229/4/4 230/4/4 231/4/4
f 231/4/4 230/4/4 232/4/4
f 232/4/4 230/4/4 233/4/4
f 233/4/4 230/4/4 234/4/4
f 234/4/4 230/4/4 235/4/4
f 235/4/4 230/4/4 236/4/4
f 236/4/4 230/4/4 237/4/4
f 237/4/4 230/4/4 238/4/4
f 238/4/4 230/4/4 239/4/4
f 239/4/4 230/4/4 240/4/4
f 240/4/4 230/4/4 241/4/4
f 241/4/4 230/4/4 242/4/4
f 234/4/4 235/4/4 243/4/4
f 236/4/4 237/4/4 244/4/4
f 244/4/4 237/4/4 245/4/4
f 238/4/4 239/4/4 246/4/4
f 246/4/4 239/4/4 247/4/4
f 240/4/4 241/4/4 248/4/4
f 232/4/4 233/4/4 249/4/4
f 247/4/4 248/4/4 250/4/4
f 246/4/4 247/4/4 250/4/4
f 244/4/4 245/4/4 250/4/4
f 234/4/4 243/4/4 250/4/4
f 245/4/4 246/4/4 250/4/4
f 243/4/4 244/4/4 250/4/4
f 250/4/4 248/4/4 251/4/4
f 251/4/4 248/4/4 252/4/4
f 252/4/4 248/4/4 253/4/4
f 253/4/4 248/4/4 254/4/4
f 254/4/4 248/4/4 255/4/4
f 255/4/4 248/4/4 256/4/4
f 256/4/4 248/4/4 257/4/4
f 248/4/4 241/4/4 258/4/4
f 257/4/4 248/4/4 258/4/4
f 232/4/4 249/4/4 259/4/4
f 249/4/4 250/4/4 259/4/4
f 250/4/4 251/4/4 259/4/4
f 259/4/4 251/4/4 260/4/4
f 260/4/4 251/4/4 261/4/4
f 252/4/4 253/4/4 262/4/4
f 262/4/4 253/4/4 263/4/4
f 254/4/4 255/4/4 264/4/4
f 264/4/4 255/4/4 265/4/4
f 256/4/4 257/4/4 266/4/4
f 266/4/4 257/4/4 267/4/4
f 258/4/4 241/4/4 268/4/4
f 266/4/4 267/4/4 269/4/4
f 267/4/4 268/4/4 269/4/4
f 264/4/4 265/4/4 269/4/4
f 262/4/4 263/4/4 269/4/4
f 265/4/4 266/4/4 269/4/4
f 260/4/4 261/4/4 269/4/4
f 263/4/4 264/4/4 269/4/4
f 261/4/4 262/4/4 269/4/4
f 269/4/4 268/4/4 270/4/4
f 270/4/4 268/4/4 271/4/4
f 271/4/4 268/4/4 272/4/4
f 272/4/4 268/4/4 273/4/4
f 268/4/4 241/4/4 274/4/4
f 273/4/4 268/4/4 274/4/4
f 229/4/4 231/4/4 275/4/4
f 232/4/4 259/4/4 276/4/4
f 276/4/4 259/4/4 277/4/4
f 260/4/4 269/4/4 278/4/4
f 278/4/4 269/4/4 279/4/4
f 270/4/4 271/4/4 280/4/4
f 280/4/4 271/4/4 281/4/4
f 272/4/4 273/4/4 282/4/4
f 282/4/4 273/4/4 283/4/4
f 274/4/4 241/4/4 284/4/4
f 284/4/4 241/4/4 285/4/4
f 242/4/4 230/4/4 286/4/4
f 282/4/4 283/4/4 287/4/4
f 285/4/4 286/4/4 287/4/4
f 284/4/4 285/4/4 287/4/4
f 280/4/4 281/4/4 287/4/4
f 283/4/4 284/4/4 287/4/4
f 276/4/4 277/4/4 287/4/4
f 281/4/4 282/4/4 287/4/4
f 278/4/4 279/4/4 287/4/4
f 279/4/4 280/4/4 287/4/4
f 275/4/4 276/4/4 287/4/4
f 277/4/4 278/4/4 287/4/4
f 286/4/4 230/4/4 288/4/4
f 287/4/4 286/4/4 288/4/4
f 275/4/4 287/4/4 289/4/4
f 288/4/4 230/4/4 290/4/4
f 275/4/4 289/4/4 291/4/4
f 289/7/4 290/7/4 291/7/4
f 290/4/4 230/4/4 292/4/4
f 291/7/4 290/7/4 292/7/4
f 275/4/4 291/4/4 293/4/4
f 229/4/4 275/4/4 293/4/4
f 291/4/4 292/4/4 293/4/4
f 292/4/4 230/4/4 294/4/4
f 293/4/4 292/4/4 294/4/4
f 299/2/4 300/2/4 305/2/4
f 305/2/4 300/2/4 306/2/4
f 301/2/4 302/2/4 307/2/4
f 307/2/4 302/2/4 308/2/4
f 303/2/4 304/2/4 309/2/4
f 309/2/4 304/2/4 310/2/4
f 297/2/4 298/2/4 311/2/4
f 311/2/4 298/2/4 312/2/4
f 313/2/4 314/2/4 323/2/4
f 323/2/4 314/2/4 324/2/4
f 315/2/4 316/2/4 325/2/4
f 325/2/4 316/2/4 326/2/4
f 317/2/4 318/2/4 327/2/4
f 327/2/4 318/2/4 328/2/4
f 319/2/4 320/2/4 329/2/4
f 329/2/4 320/2/4 330/2/4
f 295/5/4 296/5/4 337/5/4
f 337/5/4 296/5/4 338/5/4
f 321/1/4 322/1/4 339/1/4
f 339/1/4 322/1/4 340/1/4
f 331/2/4 332/2/4 341/2/4
f 341/2/4 332/2/4 342/2/4
f 333/2/4 334/2/4 343/2/4
f 343/2/4 334/2/4 344/2/4
f 335/2/4 336/2/4 345/2/4
f 345/2/4 336/2/4 346/2/4
f 349/4/5 348/4/5 347/4/5
f 351/4/5 349/4/5 347/4/5
f 351/4/5 350/4/5 349/4/5
f 352/4/5 350/4/5 351/4/5
f 355/5/5 354/5/5 353/5/5
f 356/5/5 354/5/5 355/5/5
f 362/3/5 358/3/5 357/3/5
f 363/3/5 360/3/5 359/3/5
f 365/3/5 362/3/5 361/3/5
f 365/3/5 358/3/5 362/3/5
f 366/3/5 364/3/5 363/3/5
f 366/3/5 363/3/5 359/3/5
f 367/3/5 365/3/5 361/3/5
f 367/3/5 366/3/5 365/3/5
f 368/3/5 366/3/5 367/3/5
f 369/3/5 364/3/5 366/3/5
f 369/3/5 366/3/5 368/3/5
f 370/3/5 364/3/5 369/3/5
f 371/3/5 369/3/5 368/3/5
f 372/3/5 369/3/5 371/3/5
f 377/2/5 374/2/5 373/2/5
f 378/2/5 374/2/5 377/2/5
f 379/1/5 376/1/5 375/1/5
f 380/1/5 376/1/5 379/1/5
f 383/2/5 382/2/5 381/2/5
f 384/2/5 382/2/5 383/2/5
f 391/2/5 386/2/5 385/2/5
f 392/2/5 386/2/5 391/2/5
f 393/2/5 388/2/5 387/2/5
f 394/2/5 388/2/5 393/2/5
f 395/2/5 390/2/5 389/2/5
f 396/2/5 390/2/5 395/2/5
f 403/2/5 398/2/5 397/2/5
f 404/2/5 398/2/5 403/2/5
f 405/2/5 400/2/5 399/2/5
f 406/2/5 400/2/5 405/2/5
f 407/2/5 402/2/5 401/2/5
f 408/2/5 402/2/5 407/2/5
f 415/2/5 410/2/5 409/2/5
f 416/2/5 410/2/5 415/2/5
f 417/2/5 412/2/5 411/2/5
f 418/2/5 412/2/5 417/2/5
f 419/2/5 414/2/5 413/2/5
f 420/2/5 414/2/5 419/2/5
f 423/4/5 422/4/5 421/4/5
f 424/4/5 422/4/5 423/4/5
f 427/6/5 426/6/5 425/6/5
f 428/6/5 426/6/5 427/6/5
f 430/4/5 428/4/5 427/4/5
f 430/4/5 429/4/5 428/4/5
f 431/4/5 429/4/5 430/4/5
f 432/4/6 433/4/6 434/4/6
f 434/4/6 433/4/6 435/4/6
f 432/4/6 434/4/6 436/4/6
f 435/4/6 433/4/6 437/4/6
f 432/4/6 436/4/6 438/4/6
f 436/4/6 437/4/6 438/4/6
f 437/4/6 433/4/6 439/4/6
f 438/4/6 437/4/6 439/4/6
f 438/4/6 439/4/6 443/4/6
f 439/4/6 440/4/6 443/4/6
f 443/4/6 440/4/6 444/4/6
f 441/5/6 442/5/6 445/5/6
f 445/5/6 442/5/6 446/5/6
f 447/3/6 448/3/6 450/3/6
f 450/3/6 448/3/6 451/3/6
f 449/3/6 450/3/6 453/3/6
f 451/3/6 452/3/6 453/3/6
f 450/3/6 451/3/6 453/3/6
f 453/3/6 452/3/6 454/3/6
f 454/3/6 452/3/6 455/3/6
f 455/3/6 452/3/6 456/3/6
f 454/3/6 455/3/6 457/3/6
f 457/3/6 455/3/6 458/3/6
f 459/2/6 460/2/6 463/2/6
f 463/2/6 460/2/6 464/2/6
f 461/1/6 462/1/6 465/1/6
f 465/1/6 462/1/6 466/1/6
f 467/2/6 468/2/6 469/2/6
f 469/2/6 468/2/6 470/2/6
f 471/2/6 472/2/6 477/2/6
f 477/2/6 472/2/6 478/2/6
f 473/2/6 474/2/6 479/2/6
f 479/2/6 474/2/6 480/2/6
f 475/2/6 476/2/6 481/2/6
f 481/2/6 476/2/6 482/2/6
f 483/2/6 484/2/6 489/2/6
f 489/2/6 484/2/6 490/2/6
f 485/2/6 486/2/6 491/2/6
f 491/2/6 486/2/6 492/2/6
f 487/2/6 488/2/6 493/2/6
f 493/2/6 488/2/6 494/2/6
f 495/2/6 496/2/6 501/2/6
f 501/2/6 496/2/6 502/2/6
f 497/2/6 498/2/6 503/2/6
f 503/2/6 498/2/6 504/2/6
f 499/2/6 500/2/6 505/2/6
f 505/2/6 500/2/6 506/2/6
f 507/4/6 508/4/6 509/4/6
f 509/4/6 508/4/6 510/4/6
f 511/4/6 512/4/6 513/4/6
f 511/4/6 513/4/6 515/4/6
f 513/4/6 514/4/6 515/4/6
f 515/4/6 514/4/6 516/4/6
